<?xml version="1.0" encoding="UTF-8"?>
<svg id="Layer_2" data-name="Layer 2" xmlns="http://www.w3.org/2000/svg" xmlns:xlink="http://www.w3.org/1999/xlink" viewBox="0 0 537.65 537.65">
  <defs>
    <style>
      .cls-1 {
        fill: url(#linear-gradient-2);
      }

      .cls-2 {
        fill: #fff;
      }

      .cls-3 {
        fill: #010101;
      }

      .cls-4 {
        fill: url(#linear-gradient);
      }
    </style>
    <linearGradient id="linear-gradient" x1="272.04" y1="-20.29" x2="265.78" y2="543.19" gradientUnits="userSpaceOnUse">
      <stop offset="0" stop-color="#333232"/>
      <stop offset=".02" stop-color="#353434"/>
      <stop offset=".31" stop-color="#595959"/>
      <stop offset=".57" stop-color="#737373"/>
      <stop offset=".81" stop-color="#838383"/>
      <stop offset="1" stop-color="#898989"/>
    </linearGradient>
    <linearGradient id="linear-gradient-2" x1="194.73" y1="422.93" x2="369.04" y2="59.64" gradientUnits="userSpaceOnUse">
      <stop offset=".22" stop-color="#87c4eb"/>
      <stop offset=".37" stop-color="#62a8db"/>
      <stop offset=".51" stop-color="#4894cf"/>
      <stop offset=".63" stop-color="#3888c8"/>
      <stop offset=".73" stop-color="#3384c6"/>
    </linearGradient>
  </defs>
  <g id="Icon">
    <g id="Background">
      <path id="Top" class="cls-4" d="M312.64,451.13c52.43,15.64,76.1,30.13,131.08,32.74,33.86,1.6,62.34-2.12,86.73-7.01,4.64-11.33,7.2-23.7,7.2-36.64V97.43c0-53.59-43.85-97.43-97.43-97.43H97.43C43.85,0,0,43.85,0,97.43v322.23c93.69-12.69,224.19,5.08,312.64,31.46Z"/>
      <path id="Bottom" class="cls-3" d="M97.43,537.65h342.78c40.65,0,75.68-25.23,90.24-60.79-24.39,4.88-52.88,8.61-86.73,7.01-54.98-2.6-78.66-17.1-131.08-32.74-88.45-26.38-218.95-44.15-312.64-31.46v20.55c0,53.59,43.85,97.43,97.43,97.43Z"/>
    </g>
    <g id="Star">
      <path id="Outline" class="cls-2" d="M389.51,354.58l-59.32-21.59c-13.01-4.74-27.59-.55-36.12,10.36l-38.86,49.74c-19.06,24.4-58.21,10.15-57.13-20.79l2.2-63.08c.48-13.84-8-26.41-21.01-31.15l-59.32-21.59c-29.1-10.59-27.64-52.23,2.12-60.76l60.68-17.4c13.31-3.82,22.65-15.77,23.13-29.61l2.2-63.08c1.08-30.94,41.13-42.43,58.44-16.76l35.3,52.33c7.74,11.48,22,16.67,35.31,12.85l60.68-17.4c29.76-8.54,53.06,26,34,50.4l-38.86,49.74c-8.53,10.91-9.05,26.07-1.31,37.55l35.3,52.33c17.32,25.67-8.33,58.5-37.43,47.91Z"/>
      <path id="Center" class="cls-1" d="M393.76,322.06l-84.69-30.82c-6.88-2.5-14.59-.29-19.1,5.48l-55.49,71.02c-1.37,1.75-4.18.73-4.11-1.49l3.14-90.07c.26-7.32-4.23-13.97-11.11-16.47l-84.69-30.82c-2.09-.76-1.99-3.75.15-4.37l86.63-24.84c7.04-2.02,11.97-8.34,12.23-15.65l3.14-90.07c.08-2.22,2.96-3.05,4.2-1.2l50.4,74.72c4.09,6.07,11.63,8.81,18.67,6.79l86.63-24.84c2.14-.61,3.81,1.87,2.44,3.62l-55.49,71.02c-4.51,5.77-4.79,13.78-.69,19.85l50.4,74.72c1.24,1.84-.6,4.2-2.69,3.44Z"/>
    </g>
  </g>
</svg>